<?xml version="1.0" encoding="utf-8"?>
<!-- Generator: Adobe Illustrator 24.3.0, SVG Export Plug-In . SVG Version: 6.00 Build 0)  -->
<svg version="1.1" id="Layer_2" xmlns="http://www.w3.org/2000/svg" xmlns:xlink="http://www.w3.org/1999/xlink" x="0px" y="0px"
	 viewBox="0 0 1080 1350" style="enable-background:new 0 0 1080 1350;" xml:space="preserve">
<style type="text/css">
	.st0{fill:#155860;}
	.st1{fill:#003F45;}
	.st2{fill:#62C6C0;}
	.st3{fill:#159598;}
	.st4{fill:#FFFEF5;}
	.st5{fill:#AADCD8;}
	.st6{fill:#431D26;}
	.st7{opacity:0.7;fill:#FFFFFF;}
	.st8{fill:#551D24;}
	.st9{fill:#FFFFFF;}
	.st10{opacity:0.5;fill:none;stroke:#FFFFFF;stroke-width:10;stroke-miterlimit:10;}
	.st11{fill:#D1D3D4;}
</style>
<g>
	<path class="st0" d="M750.97,624.04c-14.82,50.44-47.67,81.62-64.61,97.31c-29.97,27.76-89.24,82.65-175.03,74.44
		c-69.3-6.63-134.34-52.38-168.27-122.05c-29.76-61.11-25.65-120.22-22.91-143.28c-7.35-28.55-14.71-57.09-22.06-85.64
		c-15.31,6.15-76.5,32.92-109.58,105.71c-23.99,52.79-20.2,101.71-18.37,122.16c7.85,87.86,57.48,145.39,77.27,168.37
		C371.99,985.64,571.4,963.03,599.59,959.37c47.65-6.19,208.97-27.13,277.43-160.67c18.33-35.76,42.22-103.38,35.15-180.62
		c-3.66-40-14.22-67.4-16.78-73.86c-19.48-49.05-49.93-78.53-66.51-92.41c-26.18,14.23-52.36,28.47-78.54,42.7
		c5.78,20.28,12.69,54.16,7.6,95.21C755.81,606.96,752.28,619.58,750.97,624.04z"/>
	<path class="st0" d="M743.77,615.64c-14.82,50.44-47.67,81.62-64.61,97.31c-29.97,27.76-89.24,82.65-175.03,74.44
		c-69.3-6.63-134.34-52.38-168.27-122.05c-29.76-61.11-25.65-120.22-22.91-143.28c-7.35-28.55-14.71-57.09-22.06-85.64
		c-15.31,6.15-76.5,32.92-109.58,105.71c-23.99,52.79-20.2,101.71-18.37,122.16c7.85,87.86,57.48,145.39,77.27,168.37
		C364.78,977.24,564.2,954.63,592.39,950.97c47.65-6.19,208.97-27.13,277.43-160.67c18.33-35.76,42.22-103.38,35.15-180.62
		c-3.66-40-14.22-67.4-16.78-73.86c-19.48-49.05-49.93-78.53-66.51-92.41c-26.18,14.23-52.36,28.47-78.54,42.7
		c5.78,20.28,12.69,54.16,7.6,95.21C748.6,598.56,745.08,611.18,743.77,615.64z"/>
	<path class="st1" d="M818.98,621.77c6.41,117.33-160.33,242.7-309.73,227.52c-117.08-11.9-251.42-112.94-245.76-224.72
		c5.84-115.2,157.92-193.15,275.21-194.23C663.6,429.18,813.13,514.59,818.98,621.77z"/>
	<path class="st2" d="M287.96,381.82c-3.15,11.9-3.63,22.57-6.23,39.76c0,0-2.04,17.9-2.64,33.74
		c-1.84,48.32,10.44,96.68,13.8,109.61c9.71,37.34,21.94,64.35,26.74,74.51c10.48,22.21,25.6,53.62,55.11,85.41
		c11.32,12.2,32.58,32.88,61.7,49.17c14.11,7.89,25.46,12.18,29.01,13.49c17.29,6.35,30.94,8.51,41.67,10.15
		c24.28,3.71,43.56,3.12,52.16,2.67c15.26-0.81,33.66-1.93,56.78-9.67c25.64-8.59,43.88-20.9,52.57-27.3
		c14.01-10.32,23.28-20.06,31.25-28.5c9.37-9.94,23.02-24.41,35.89-46.4c10.74-18.34,16.66-35.56,28.5-70.01
		c4.58-13.31,7.07-21.84,8.91-28.73c4.45-16.61,6.89-30.2,8.82-42.25c4.72-29.43,10.97-68.48,10.77-120.13
		c-0.12-30.65-2.42-41.23-3.63-46.16c-1.38-5.66-7.79-30.32-27.19-54.91c-9.55-12.11-21.8-23.63-44.21-37.08
		c-16.98-10.2-48.71-26.87-99.16-37.56c-66.58-14.1-120.08-8.1-141.88-4.9c-31.49,4.63-66.01,10.05-105.14,32.9
		c-41.46,24.22-59.38,51.23-63.79,58.17C302.87,345.51,293.65,360.28,287.96,381.82z"/>
	<path class="st3" d="M336.1,441.56c31.6-59.65,70.58-82.77,87.73-91.24c55.24-27.31,104.61-22.5,134.91-17.85
		c100.4,15.39,165.38,86.74,188.65,115.16c9.14-8.27,18.28-16.54,27.42-24.82c-3.15-20.61-10.23-49.68-27.85-78.33
		c-61.43-99.91-190.55-96.45-219.58-95.68c-39.71,1.06-134.17,3.6-195.09,84.94c-32.96,44.01-42.28,92.63-45.41,119.2
		C303.29,449.15,319.7,445.35,336.1,441.56z"/>
	<path class="st4" d="M331.67,435.37c-14.92,5.86-29.85,11.71-44.77,17.57c58.36,59.16,115.26,83.73,149.28,94.79
		c102.74,33.39,258.19,28.43,317.96-70.71c12.09-20.05,17.76-39.9,20.67-54.22c-5.05,3.64-10.1,7.27-15.14,10.91
		c-35.24,22.54-198.44,121.67-355.79,48.91C381.78,472.41,357.02,457.53,331.67,435.37z"/>
	<path class="st3" d="M787.71,484.73c-12.35-4.08-16.2-22.31-17.1-26.6c-2.4-11.38-2.56-31.1,7.18-38.27
		c4.15-3.06,5.57-0.5,21.75-5.83c3.37-1.11,7.53-2.61,12.46-5.13c3.33-1.7,5.45-3.07,8.02-4.67c8.33-5.17,13.83-8.59,18.32-10.57
		c9.63-4.26,18.38-3.6,23.7-3.2c3.58,0.27,13.47,1.35,24.49,7.47c15.82,8.78,23.98,22.38,27.93,29.15
		c13.21,22.62,13.66,45.5,13.4,54.38c-0.67,22.64-8.49,38.71-12.83,47.39c-11.66,23.32-27.2,35.79-40.75,46.67
		c-20.22,16.23-37.53,22.99-56.37,30.34c-25.17,9.82-42.56,16.6-50.04,7.93c-7.81-9.06-1.06-30.69,0-34.07
		c1.16-3.73,3.97-12.41,10.77-19.84c12.14-13.26,22.73-6.88,45.82-16.33c14.32-5.87,23.9-14.57,43.07-31.97
		c10.52-9.55,15-15.1,17.16-23.22c0.52-1.95,4.5-17.83-4.07-28.59c-8.26-10.37-22.39-8.73-26.13-8.3
		c-20.72,2.4-40.35,23.24-41.43,24.4c-1.61,1.74-5.32,5.95-11.4,8.17C800.4,484.48,794.02,486.81,787.71,484.73z"/>
	<path class="st0" d="M783.28,747.95"/>
	<path class="st0" d="M169.57,712.52"/>
	<path class="st5" d="M760.16,429.07c-2.98,58.28-123.85,104.13-220.42,102.91c-97.1-1.23-216.81-50.64-218.52-108.16
		c-1.76-58.95,120.42-126.11,229.8-121.49C650.83,306.55,763.1,371.52,760.16,429.07z"/>
	<path class="st4" d="M301.26,362.92"/>
	<path class="st2" d="M625.78,276.82"/>
	<path class="st4" d="M213.85,547.45"/>
	<path class="st4" d="M216.39,524.63c-6.58,17.53-42.7,118.47,1.85,226.52c58.05,140.78,198.92,162.32,207.17,163.42
		c1.36-8.32,2.73-16.63,4.09-24.95c-83.81-13.85-154.05-73.32-182.71-156.37c-30.73-89.07-1.11-168.98,6.02-186.92
		C240.67,539.1,228.53,531.87,216.39,524.63z"/>
	<g>
		
			<ellipse transform="matrix(0.9074 -0.4203 0.4203 0.9074 -301.7229 359.6309)" class="st6" cx="665.21" cy="864.48" rx="76.53" ry="42.31"/>
		<path class="st7" d="M596.87,898.75c5.6-6.89,14.59-16.25,27.55-23.05c30.12-15.81,52.28-2.77,75.53-18.9
			c7.59-5.27,17.45-15.14,24.8-35.45c1.3,0.8,2.85,1.91,4.46,3.46c1.51,1.45,2.67,2.91,3.54,4.15
			c-9.04,20.79-20.07,30.6-28.52,35.71c-25.05,15.15-47.47,1.18-74.42,17.85c-11.99,7.42-19.66,17.67-24.22,25.05
			c-1.36-0.81-3.07-2.02-4.82-3.79C598.98,901.99,597.73,900.18,596.87,898.75z"/>
	</g>
	<g>
		
			<ellipse transform="matrix(0.9074 -0.4203 0.4203 0.9074 -301.162 345.5354)" class="st8" cx="633.51" cy="856.16" rx="76.53" ry="42.31"/>
		<path class="st7" d="M565.17,890.43c5.6-6.89,14.59-16.25,27.55-23.05c30.12-15.81,52.28-2.77,75.53-18.9
			c7.59-5.27,17.45-15.14,24.8-35.45c1.3,0.8,2.85,1.91,4.46,3.46c1.51,1.45,2.67,2.91,3.54,4.15
			c-9.04,20.79-20.07,30.6-28.52,35.71c-25.05,15.15-47.47,1.19-74.42,17.85c-11.99,7.42-19.66,17.67-24.22,25.05
			c-1.36-0.81-3.07-2.02-4.82-3.79C567.28,893.67,566.02,891.86,565.17,890.43z"/>
	</g>
	<path class="st9" d="M751.61,886.57"/>
	<path class="st10" d="M374.1,407.02c27.08-22.44,86.58-64.76,165.95-64.41c58.43,0.26,140.79,23.61,145.68,63.01
		c2.22,17.83-11.92,35.05-19.64,44.45c-18.51,22.55-41.27,28.56-68.72,35.35c-19.4,4.8-55.02,13.05-98.18,0.7
		c-16.4-4.69-55.76-15.96-56.69-34.3c-1.05-20.66,46.99-43.28,87.41-43.4c2.78-0.01,38.04,0.13,40.54,12.6
		c1.35,6.76-7.42,14.67-13.93,19.6"/>
	<path class="st11" d="M633.51,1111.99"/>
	<g>
		<g>
			<path d="M103.4,849.25c12.18-13.92,24.53-27.73,37.5-40.93c-0.1-0.14-0.16-0.21-0.26-0.35c-13.63,8.53-27.49,16.41-41.73,23.89
				c-18.36,9.27-36.9,18.07-55.68,26.44c-2.59-3.9-3.88-5.86-6.43-9.83c11.35-18.85,23.07-37.42,35.23-55.76
				c9.88-14.42,20.04-28.58,31.33-41.95c-0.06-0.11-0.09-0.16-0.15-0.27c-14.56,11.3-29.36,22.27-44.23,33.15
				c-14.45,10.44-28.92,20.86-43.4,31.27c-3.03-5.29-4.52-7.95-7.48-13.35c34.38-23.15,68.65-46.48,102.8-69.97
				c3.25,5.83,4.9,8.71,8.25,14.38c-12.79,18.03-25.12,36.31-37.06,54.91c-8.35,12.84-16.65,25.72-25.45,38.26
				c0.11,0.17,0.17,0.26,0.28,0.43c12.32-6.98,25.02-13.23,37.69-19.54c18.38-8.98,36.49-18.37,54.42-28.22
				c3.68,5.13,5.55,7.65,9.32,12.62c-28.2,32.76-55.89,65.94-83.09,99.53c-3.59-4.6-5.37-6.92-8.9-11.64
				C78.62,877.9,90.97,863.54,103.4,849.25z"/>
			<path d="M119.77,955.48c2.49-4.13,3.74-6.19,6.25-10.31c-0.13-0.14-0.2-0.21-0.33-0.35c-7.42,2.72-17.32,1.29-25.01-7.02
				c-10.1-10.91-7.63-28.54,1.13-39.23c15.83-19.31,38.18-7.83,52.02,7.47c0.47-0.62,0.7-0.93,1.17-1.54
				c6.53-8.77,9.96-20.1,2.17-29.12c-4.25-4.93-10.66-8.14-16.69-8.85c2.1-4.31,3.16-6.46,5.3-10.74
				c7.04,0.79,14.58,4.78,20.46,11.22c13.81,15.12,5.99,35.84-4.56,50.19c-6.86,9.48-13.71,18.97-20.54,28.48
				c-4.76,6.62-9.17,13.31-12.2,19.23C125.25,961.18,123.41,959.3,119.77,955.48z M146.94,915.68c-8.57-9.85-23.72-20.98-34.68-7.58
				c-6.89,8.42-6.18,17.24-1.25,22.76c6.91,7.73,16.07,6.28,22.37,1.56c1.37-1.05,2.75-2.36,3.8-3.76
				C141.08,923.47,143.03,920.87,146.94,915.68z"/>
			<path d="M222.58,888.76c-5.92,9.1-8.88,13.66-14.78,22.78c5.22,4.68,7.85,6.97,13.16,11.44c-2.73,4.49-4.1,6.74-6.82,11.24
				c-5.42-4.56-8.11-6.9-13.44-11.68c-9.22,14.29-18.42,28.6-27.57,42.94c-6.32,9.89-7.9,17.33-2.08,22.36
				c2.73,2.36,5.07,3.57,6.69,4.17c-2.48,4.6-3.71,6.91-6.18,11.52c-2.78-0.56-6.58-2.5-10.69-6.09
				c-4.95-4.33-7.42-10.18-7.46-16.26c-0.04-6.83,3.44-14.92,9.61-24.17c9.52-14.27,19.07-28.53,28.65-42.76
				c-3.13-2.93-4.69-4.42-7.79-7.43c2.98-4.27,4.48-6.41,7.46-10.67c3.03,2.95,4.56,4.41,7.62,7.28
				c5.06-7.49,7.59-11.24,12.67-18.72C216,886.4,218.2,887.21,222.58,888.76z"/>
			<path d="M217.71,1039.17c1.78-4.59,2.68-6.88,4.48-11.46c-0.15-0.1-0.23-0.16-0.38-0.26c-6.73,4.41-16.48,5.46-25.09-0.7
				c-12-8.6-11.05-26.5-4.69-38.02c11.63-21.08,33.94-18.07,51.09-5.51c0.36-0.71,0.53-1.06,0.89-1.77c4.67-9.39,7-21.45-2.22-28.61
				c-4.77-3.71-11.44-5.23-17.34-4.43c1.39-4.66,2.09-6.99,3.51-11.63c6.87-0.98,14.71,0.99,21.31,5.78
				c16.31,11.84,10.46,34.42,3.06,49.54c-5.19,10.81-10.37,21.63-15.52,32.46c-3.59,7.54-6.84,15.07-8.87,21.51
				C223.84,1043.36,221.79,1041.98,217.71,1039.17z M237.93,994.19c-10.74-8.23-26.45-13.57-34.46,1.13
				c-5.34,9.79-3.4,18.1,2.16,22.22c7.79,5.77,16.39,2.16,21.74-3.92c1.17-1.34,2.3-2.95,3.09-4.54
				C233.45,1003.12,234.95,1000.14,237.93,994.19z"/>
			<path d="M273.71,992.62c4.05-9.11,7.27-16.65,10.19-24.13c3.47,2.13,5.21,3.18,8.7,5.23c-2.28,5.83-3.41,8.75-5.67,14.59
				c0.14,0.08,0.21,0.12,0.35,0.2c6.74-6.62,15.44-11.66,24.27-6.68c8.8,4.96,10.44,17.06,9.22,26.42c0.1,0.05,0.14,0.07,0.24,0.12
				c3.61-4.24,7.25-7.15,10.59-8.9c4.85-2.58,9.51-3.23,14.72-0.81c16.78,7.78,10.3,34.8,7.12,48.55
				c-5.21,18.5-10.38,37-15.52,55.52c-4.72-1.82-7.08-2.76-11.78-4.69c5.24-17.69,10.52-35.37,15.82-53.03
				c3.37-9.71,6.95-28.69-3.9-34.21c-5.53-2.82-13.03,2.16-17.71,9.46c-1.28,2.05-2.72,4.91-3.78,7.94
				c-6.63,18.93-13.2,37.87-19.73,56.83c-4.63-2.22-6.94-3.35-11.54-5.68c6.66-18.24,13.35-36.46,20.07-54.68
				c3.64-9.06,7.24-25.34-2.57-31.27c-5.97-3.61-14.44,1.94-19.52,9.08c-1.6,2.05-3.01,4.67-4.18,7.43
				c-7.57,17.93-15.09,35.87-22.57,53.83c-4.52-2.62-6.77-3.96-11.25-6.69C254.71,1035.55,264.18,1014.08,273.71,992.62z"/>
			<path d="M394.96,1121.22c0.53-4.98,0.81-7.47,1.36-12.44c-0.17-0.04-0.25-0.07-0.41-0.11c-5.18,6.59-14.01,11.11-23.5,8.39
				c-14.05-4.03-16.45-22.2-13.62-34.11c5.34-22.48,25.11-29.98,46.1-23.73c0.16-0.8,0.24-1.2,0.4-1.99
				c1.89-9.68,1.74-22.59-9.06-26.21c-5.31-1.78-11.9-0.77-17.17,2.13c0.15-4.9,0.24-7.34,0.43-12.23
				c6.13-3.43,13.88-4.44,21.18-2.3c19,5.56,17.83,30.49,14.97,45.7c-2.18,12.08-4.34,24.16-6.48,36.25
				c-1.49,8.42-2.67,16.7-2.98,23.52C401.69,1122.98,399.44,1122.41,394.96,1121.22z M402.75,1071.44
				c-12.44-4.03-28.85-1.78-31.74,13.53c-2.04,10.82,1.26,18.29,7.43,20.17c8.64,2.63,15.76-3.87,19.25-11.54
				c0.76-1.69,1.41-3.61,1.76-5.41C400.77,1081.5,401.43,1078.15,402.75,1071.44z"/>
			<path d="M455.97,1005.15c-1.27,9.36-2.54,18.71-3.79,28.07c6.16,1.11,9.25,1.61,15.43,2.52c-0.59,5.43-0.88,8.15-1.47,13.59
				c-6.31-0.92-9.47-1.43-15.76-2.57c-2.33,17.58-4.63,35.17-6.9,52.76c-1.56,12.13-0.07,19.47,6.75,20.56
				c3.2,0.51,5.64,0.26,7.23-0.13c-0.33,5.39-0.5,8.09-0.82,13.48c-2.55,1.07-6.51,1.51-11.33,0.71
				c-5.82-0.97-10.11-4.63-12.46-9.89c-2.61-5.86-2.76-14.85-1.09-26.35c2.6-17.74,5.22-35.47,7.88-53.2
				c-3.74-0.76-5.61-1.16-9.34-2c0.89-5.38,1.34-8.07,2.23-13.46c3.65,0.82,5.48,1.21,9.14,1.96c1.41-9.35,2.12-14.02,3.55-23.36
				C449.55,1006.82,451.7,1006.28,455.97,1005.15z"/>
			<path d="M509.49,1138.89c-0.26-5-0.38-7.5-0.62-12.5c-0.17-0.01-0.25-0.01-0.42-0.02c-4.02,7.57-11.95,13.87-21.59,13.25
				c-14.53-0.93-19.45-18.75-18.57-30.52c1.71-22.8,19.17-34.82,41.19-33.16c0.03-0.82,0.04-1.22,0.07-2.04
				c0.32-9.54-1.67-22.52-12.91-23.77c-5.45-0.61-11.7,1.79-16.37,5.77c-0.61-4.83-0.91-7.25-1.48-12.09
				c5.43-4.69,13.01-7.12,20.25-6.81c18.92,0.83,22.14,27.8,21.72,41.63c-0.24,12.31-0.45,24.63-0.65,36.95
				c-0.14,8.57,0.01,16.95,0.77,23.71C516.33,1139.18,514.05,1139.1,509.49,1138.89z M509.31,1088.4
				c-13.29-1.34-28.35,4.7-28.8,20.07c-0.33,11.11,4.07,17.67,10.38,18.19c8.83,0.73,14.75-7.17,16.96-15.44
				c0.47-1.82,0.81-3.84,0.88-5.68C508.95,1098.68,509.07,1095.25,509.31,1088.4z"/>
			<path d="M636.33,1125.24c-3.98,4.07-12.56,8.96-24.13,10.66c-35.99,5.28-50.03-36.62-50.41-64.73
				c-0.34-25.43,4.25-71.28,37.35-76.16c9.55-1.41,16.02,1.06,18.98,2.98c-0.17,5.9-0.26,8.84-0.47,14.74
				c-4.3-2.51-10.16-4.04-16.59-3.01c-26.16,4.22-28.3,39.63-27.47,60.04c0.89,22.02,11.14,54.98,39.42,51.01
				c7.28-1.02,14.5-4.62,18.79-8.93C633.6,1117.21,634.5,1119.89,636.33,1125.24z"/>
			<path d="M698.36,1062.05c4.7,20.87,5.23,52.74-20.25,60.32c-23.97,7.13-37.99-23.31-40.33-42.08
				c-2.31-18.5-3.02-51.8,20.69-58.42C680.74,1015.66,694.64,1045.57,698.36,1062.05z M649.25,1077.14
				c1.96,11.61,11.57,36.66,26.67,32.02c15.28-4.7,14.28-29.74,11.12-42.76c-2.75-11.34-11.86-34.87-26.16-31.37
				C646.27,1038.59,647.21,1065.08,649.25,1077.14z"/>
			<path d="M765.88,1087.78c-9.21-26.17-18.33-52.37-27.38-78.6c-9.48,4.4-14.27,6.47-23.9,10.33c7.99,26.71,16.06,53.39,24.2,80.04
				c-4.68,1.89-7.03,2.81-11.74,4.58c-7.68-26.85-15.29-53.72-22.82-80.61c-3.25,1.22-4.88,1.81-8.14,2.97
				c-1.38-5.21-2.07-7.82-3.44-13.04c3.19-1.13,4.79-1.72,7.96-2.91c-0.34-1.24-0.52-1.86-0.86-3.1
				c-3.13-10.95-5.31-23.1-2.91-34.23c1.41-6.53,4.84-11.57,10.6-14.04c2.99-1.28,6.31-0.79,8.41,0.01
				c0.86,5.28,1.28,7.93,2.1,13.22c-1.8-0.51-4.44-0.82-6.42,0.19c-9.35,4.75-4.67,21.87-1.98,29.97c0.48,1.62,0.72,2.42,1.2,4.04
				c9.43-3.78,14.11-5.8,23.39-10.1c-0.6-1.74-0.89-2.61-1.49-4.34c-3.86-10.99-6.77-23.28-4.81-34.82
				c1.3-7.64,5.07-12.41,9.22-14.56c3.32-1.72,6.51-1.87,8.79-1.53c1.54,5.26,2.31,7.9,3.83,13.17c-1.93-0.31-4.38-0.34-6.85,1.17
				c-9.33,5.71-3.92,22.77-0.55,31.31c0.71,1.95,1.06,2.92,1.77,4.87c5.31-2.61,7.95-3.95,13.2-6.73c1.94,4.96,2.91,7.44,4.86,12.39
				c-5.32,2.82-8,4.18-13.37,6.83c9.51,26,19.09,51.97,28.75,77.92C772.86,1084.49,770.54,1085.6,765.88,1087.78z"/>
			<path d="M790.06,1025.03c4.87,13.31,19.22,27.49,33.85,18.12c7.72-4.94,11.53-9.99,14.3-15.16c2.96,3.92,4.45,5.87,7.43,9.76
				c-2.58,5.06-7.91,12.33-17.55,18.46c-22.04,14.01-41.2-8-48.77-27.02c-7.01-17.6-14.15-49.87,5.72-62.53
				c17.81-11.35,34.94,12.26,41.86,25.72c1.61,3.14,2.63,5.74,3.32,7.38C817.24,1008.8,803.78,1017.17,790.06,1025.03z
				 M815.23,995.11c-4.5-9.18-15.64-23.19-25.81-16.66c-10.05,6.46-7.61,24.06-4.11,35.03
				C795.48,1007.69,805.46,1001.56,815.23,995.11z"/>
			<path d="M848.69,986.45c6.39,13.04,22.3,24.27,35.58,13.13c7.21-6.05,10.56-11.64,12.83-17.19c3.34,3.47,5.02,5.19,8.38,8.63
				c-2.09,5.42-6.73,13.46-15.75,20.97c-20.07,16.71-41.58-1.31-51.36-19.84c-9.08-17.2-18.54-47.92-0.38-63.04
				c16.29-13.57,35.96,6.83,44.35,19.48c1.92,2.89,3.19,5.33,4.04,6.87C874.29,966.33,861.66,976.63,848.69,986.45z M870.93,953
				c-5.54-8.72-18.01-20.73-27.42-12.82c-9.3,7.82-5.4,24.71-0.69,35.46C852.43,968.4,861.8,960.85,870.93,953z"/>
			<path d="M869.74,855.86c2.45-4.75,6.98-11.28,12.21-17.21c7.45-8.46,14.1-11.81,21.73-11.66c6.06,0.12,13.11,3.15,19.88,10.38
				c8.27,8.84,11.79,21.43,8.53,33.19c0.1,0.11,0.15,0.17,0.25,0.28c11.3-6.47,26.12-2.07,34.55,6.86
				c5.7,6.04,11.44,16.68,11.84,25.41c0.66,14.28-6.94,27.12-16.2,37.63c-6.36,7.23-11.89,12-15.53,14.75
				C921.06,922.42,895.31,889.21,869.74,855.86z M910.16,888.45c3.02-3.32,4.52-5,7.5-8.4c8.25-9.32,6.92-22.83-0.64-31.83
				c-7.32-8.7-19.25-9.2-26.56-0.32c-3.26,3.97-5.19,6.67-6.08,8.48C892.96,867.09,901.55,877.78,910.16,888.45z M948.75,935.94
				c2.15-1.54,4.94-4.32,8.13-8.01c9.88-11.42,11.07-27.46,1.07-39.17c-9.27-10.87-24.24-8.23-32.93,1.6
				c-2.77,3.16-4.17,4.72-6.98,7.82C928.24,910.79,938.47,923.38,948.75,935.94z"/>
			<path d="M1028.36,851.02c-3.67-2.49-5.51-3.74-9.17-6.25c-0.11,0.17-0.16,0.25-0.27,0.42c3.32,9.83,1.51,21.01-3.78,29.54
				c-7.53,12.16-23.84,10.84-32.69,1.93c-16.84-16.93-11-41.95,1.6-60.38c-0.56-0.48-0.83-0.72-1.39-1.2
				c-7.09-6.61-18.25-9.66-24.55,0.13c-3.51,5.45-5.81,12.9-5.83,19.84c-3.77-2.06-5.65-3.11-9.39-5.21
				c-0.02-8.08,3.09-17.15,7.44-24.33c9.96-16.44,30.84-9.35,42.47,0.58c8.53,7.03,17.07,14.04,25.61,21.05
				c5.95,4.87,11.94,9.34,17.17,12.26C1032.72,844.08,1031.28,846.41,1028.36,851.02z M992.71,823.34
				c-7.53,10.88-15.45,29.75-3.33,40.61c7.62,6.83,14.89,5.66,19.08-0.52c5.86-8.64,3.91-19.14-0.57-25.98
				c-0.99-1.49-2.21-2.96-3.47-4.04C999.73,829.39,997.39,827.38,992.71,823.34z"/>
			<path d="M998.98,782.76c-8.25-6.3-15.41-11.6-22.13-16.21c2.29-4.01,3.42-6.03,5.65-10.11c5.64,3.94,8.47,5.9,14.12,9.82
				c0.12-0.22,0.18-0.33,0.3-0.55c-6.47-7.99-10.72-19.72-6.07-29.35c0.65-1.35,1.32-2.22,2.17-3.11c4.98,3.33,7.47,4.99,12.46,8.31
				c-0.93,1.07-1.76,2.25-2.57,3.91c-4.79,9.81,0.67,21.22,8.06,28.33c1.61,1.56,3.51,3.33,5.72,4.93
				c12.64,9.14,25.3,18.26,37.99,27.33c-2.91,5.38-4.38,8.05-7.37,13.33C1031.16,807.22,1015.05,795.01,998.98,782.76z"/>
		</g>
	</g>
	<path class="st11" d="M99.87,763.67c5,3.61,10,7.23,15,10.84"/>
	<path class="st11" d="M280.68,877.12"/>
</g>
</svg>
